<svg width="64" height="64" viewBox="0 0 64 64" fill="none" xmlns="http://www.w3.org/2000/svg">
<path fill-rule="evenodd" clip-rule="evenodd" d="M26.6519 6.21715C26.6519 6.0343 26.789 5.98858 26.7433 5.76001C27.5204 6.0343 28.1604 6.3543 28.8461 6.30858C29.0747 6.3543 28.9376 6.90287 28.8461 6.9943C28.3433 6.53715 27.429 6.44572 26.6519 6.21715Z" fill="black"/>
<path fill-rule="evenodd" clip-rule="evenodd" d="M28.5718 5.75999C29.0289 5.43999 30.1718 5.62285 30.5832 5.98856C30.2632 6.39999 29.1203 5.85142 28.5718 5.75999Z" fill="black"/>
<path fill-rule="evenodd" clip-rule="evenodd" d="M38.903 48C38.903 47.8171 38.7659 47.7714 38.8116 47.5428C39.4516 47.68 39.863 46.8571 40.2744 47.4514C39.863 47.7257 39.5887 48.0457 38.903 48Z" fill="black"/>
<path fill-rule="evenodd" clip-rule="evenodd" d="M31.2231 4.20571C30.3546 3.47428 30.9946 2.60571 31.2231 1.55428C31.7717 1.96571 31.9089 1.23428 32.5489 1.32571C33.5546 1.50857 33.8289 2.88 33.4174 3.88571C36.6631 4.52571 40.366 4.8 43.0631 6.67428C43.6117 7.04 43.9774 7.58857 44.526 8C46.126 9.14286 47.9089 9.82857 49.326 11.2457C51.3374 13.2571 52.4346 15.7714 53.9889 18.24C54.2174 19.2457 54.766 19.9314 55.086 20.8C54.8574 21.6686 55.1317 22.2171 55.3146 22.9029C56.5946 23.4971 58.2403 23.7257 58.9717 24.9143C59.0631 25.7829 58.8803 26.3314 58.5146 26.7886C56.1831 27.4286 54.0346 28.3429 51.8403 28.4343C49.646 28.5714 47.406 28.5257 45.3031 28.7543C44.6631 28.8457 44.3431 28.8 43.7489 28.7543C40.366 28.5714 37.2117 29.3943 34.1031 28.9829C35.3374 30.6743 34.6517 33.28 34.9717 34.9714C34.7431 35.0629 35.0631 35.6114 34.6517 35.52C35.3374 36.5714 35.7946 37.1657 36.9831 37.6229C37.9889 37.44 38.4003 36.8 39.7717 36.7543C40.6403 34.24 38.5374 28.7543 42.5603 29.44C43.6117 31.4057 42.5146 34.6514 43.6574 36.4343C44.4803 37.7143 45.4403 39.5886 46.0803 41.5543C46.0803 41.8286 46.0803 42.1486 46.0803 42.4229C46.4003 42.4686 46.4003 42.1486 46.766 42.1943C47.1774 42.1029 47.6346 42.6057 47.8631 42.2857C48.046 42.4229 48.2289 42.56 48.4117 42.7429C52.526 43.3829 53.8974 46.7657 56.5031 48.8686C56.5946 48.7771 56.686 48.6857 56.7317 48.5486C57.0517 48.96 56.7774 49.1886 57.2803 49.4171C57.2346 50.1029 56.7317 50.56 57.2803 50.9714C57.1431 50.9714 56.9603 50.9714 56.9603 50.88C56.3203 52.0686 56.1831 53.12 55.3146 53.9886C55.726 52.8914 56.5031 51.5657 56.5488 50.4229C55.8631 51.6571 55.2689 52.9829 54.3089 53.9886C54.1717 53.5771 55.2689 52.4343 55.5431 51.6571C55.4974 51.52 55.2231 51.6114 55.2231 51.4286C54.4917 52.1143 54.0803 53.6686 53.2117 53.8514C53.6689 52.9371 54.446 52.4343 54.446 51.4286C53.7146 52.2057 53.486 53.44 52.4346 53.8514C52.7546 52.7543 54.0346 52.0686 53.8974 50.8343C53.0746 51.3829 52.8003 52.48 52.0231 53.0743C52.4346 52.1143 53.166 51.5657 53.486 50.5143C53.486 50.2857 53.1203 50.4229 53.166 50.1943C52.2974 51.7029 51.1089 53.4857 49.8289 54.2171C50.7889 52.8 52.1146 51.7029 52.846 50.0114C52.8003 49.8743 52.6631 49.8286 52.6174 49.6914C51.4289 51.0171 50.5146 52.6171 49.2803 53.8971C49.2346 54.1714 49.4631 54.1257 49.3717 54.4457C49.1889 54.9486 47.8631 55.2229 48.5031 55.7714C48.686 55.36 49.326 54.6286 49.8289 54.2171C49.8746 54.8571 49.3717 55.5428 48.8231 56.0914C49.5089 56.5486 49.8289 55.04 50.606 54.8571C50.8346 55.6343 49.1889 56 49.5089 56.8686C50.5146 56.1829 51.3374 55.2686 51.9317 54.2171C52.6174 55.5886 49.2346 56.5486 50.3774 57.6457C51.246 57.2343 51.7946 56.4571 52.2517 55.6343C52.6631 56.5486 51.2003 57.3714 50.6974 58.0571C50.7431 58.2857 51.0174 57.8743 51.0174 58.2857C52.2974 57.7829 52.5717 55.7714 53.6689 55.4971C52.9831 56.5486 52.2974 57.6 51.4289 58.5143C51.5203 58.88 52.2517 59.0628 51.9774 59.3828C51.7946 59.1543 51.3374 59.2 51.2917 58.8343C50.8346 58.9714 51.0174 59.7486 50.286 59.6114C50.2403 59.8857 50.0574 60.0686 50.3774 60.16C50.1031 60.3886 49.8746 60.16 49.5089 60.6171C49.5089 60.8 50.2403 60.8457 49.8289 61.0743C49.6003 61.44 49.1889 60.7086 48.5946 60.8457C48.4117 60.48 48.5946 60.5257 48.8231 60.2971C48.4117 60.0686 48.4117 60.3429 48.1374 60.5257C49.006 61.2114 49.2803 61.8057 49.7831 62.4C49.6917 62.5829 49.4174 62.6286 49.0974 62.6286C48.9603 61.5771 48.1831 61.12 47.3146 60.7543C47.1317 60.1143 46.6746 59.7029 46.0803 59.4286C46.1717 60.5257 48.1374 61.2114 48.4117 62.5371C46.0803 60.2971 43.8403 57.9657 41.1889 56C41.2346 55.4971 40.9146 55.36 40.8689 54.9943C41.006 54.6743 40.9146 54.1257 41.4174 54.2171C40.9603 53.5771 40.2289 53.2571 39.6346 52.7543C39.3146 52.16 40.366 51.8857 39.8631 51.2C41.3717 50.0571 39.2689 49.28 38.4003 48.5486C38.0803 48.2743 37.9431 47.8629 37.6231 47.5429C35.1546 45.3486 31.9546 43.3829 29.8517 41.0057C29.5317 41.0971 29.4403 40.9143 29.166 40.9143C29.2117 39.9086 28.5717 39.04 27.7031 38.3543C27.1546 36.4343 25.4631 35.2457 24.686 33.2343C23.7717 32.0457 22.766 30.9486 22.3546 29.2114C22.8117 28.9829 22.4917 28.6171 23.1317 28.5257C16.686 27.52 9.82886 27.9771 4.89172 24.8686C4.16029 22.3543 6.67457 21.8971 8.45743 21.6229C9.50886 17.7371 11.0174 13.2571 14.126 11.2914C18.1489 7.40571 24.046 5.07428 31.2231 4.20571ZM6.30886 24.7771C5.98886 24.7771 5.85172 24 5.62314 24.2286C5.806 24.4114 6.03457 25.0971 6.30886 24.7771ZM7.90886 25.3257C8.59457 25.2343 9.18886 25.6457 9.78314 25.7829C11.6117 26.1943 13.3489 26.24 14.9946 26.4686C16.2746 26.6514 17.5089 27.0629 18.7889 27.2457C20.9374 27.52 23.1317 27.2 25.4631 27.3371C31.6346 27.7029 38.6289 27.9314 44.4803 27.6571C47.3603 27.52 50.5603 27.6114 53.5774 26.9714C55.0403 26.6514 57.4631 26.0571 57.6917 24.7314C56.8231 24.5486 56.7774 23.68 55.5889 23.4971C55.3146 23.8629 55.7717 24.0914 55.3603 24.3657C51.3374 25.5543 47.086 26.1486 42.7889 26.4686C41.1889 26.6057 39.406 26.2857 38.2174 26.1486C35.7489 25.8286 33.5089 26.1029 30.9031 26.24C28.2517 26.4229 25.6003 26.0114 22.6746 25.6914C21.2574 25.5086 19.566 25.4629 17.8746 25.3714C15.726 25.1886 14.0346 25.0057 11.6574 24.3657C10.5603 23.6343 8.82314 23.4057 8.45743 22.1257C5.39457 22.2629 6.08029 24.64 7.90886 25.3257ZM42.4231 9.46286C42.4689 8.86857 43.4289 8.96 43.6574 8.91428C43.3374 8.68571 43.9774 8.50286 44.3431 8.59428C43.9774 7.26857 42.3317 9.00571 41.6917 8.36571C42.1031 7.86286 42.8803 8.13714 43.3374 7.58857C42.8346 7.45143 42.6517 7.04 42.1031 6.90286C41.5089 6.94857 40.5031 7.81714 40.2289 7.13143C40.8689 7.08571 41.4631 6.94857 41.6917 6.44571C41.1889 6.4 41.006 6.12571 40.5946 5.98857C40.3203 6.35428 39.0403 6.76571 38.8117 6.44571C39.1774 6.08 39.3146 6.17143 39.9089 5.98857C39.3146 4.98286 37.8974 6.49143 37.0289 6.21714C37.3031 5.76 37.806 5.57714 38.4917 5.53143C34.1489 3.47428 28.3889 5.16571 24.366 6.30857C25.006 6.26286 26.2403 6.49143 26.606 7.31428C25.8289 7.36 25.326 6.53714 24.1831 6.62857C24.1831 6.49143 24.1831 6.35428 24.1831 6.17143C23.6346 6.44571 22.8574 6.49143 22.5374 6.72C23.6803 6.67428 24.8689 7.17714 24.8689 7.95428C24.2746 7.81714 23.6346 7.36 23.5431 7.08571C23.1317 7.45143 22.5831 6.99428 22.3089 6.85714C21.8974 6.99428 21.5317 7.17714 21.2117 7.40571C21.9889 7.72571 22.9031 7.95428 23.3146 8.64C21.9889 8.36571 21.6231 7.86286 20.6631 7.63428C20.2517 7.95428 19.6117 8.04571 19.3374 8.50286C20.0231 8.77714 20.7546 9.32571 21.2117 9.50857C20.4803 9.96571 19.5203 8.86857 18.7889 8.64C18.3774 9.00571 17.7374 9.14286 17.4631 9.64571C18.1489 10.0114 19.1546 10.0114 19.566 10.6514C18.4231 10.7886 16.9146 9.23428 16.4574 10.4229C17.0974 10.9257 18.0574 11.1543 18.6974 11.6571C17.7374 12.0229 16.7317 10.7429 15.5889 10.88C15.3603 11.2457 14.9031 11.2914 14.8117 11.7486C15.7717 12.2514 16.3203 12.5257 17.2346 12.9829C16.2746 13.5314 15.2231 12.2971 14.2174 11.8857C14.2174 12.3886 13.6231 12.3429 13.5317 12.7543C14.446 13.2114 15.3603 13.9429 16.0917 14.2171C14.766 14.9486 13.166 11.7029 12.526 13.9886C13.5317 14.4457 14.5374 15.3143 15.3146 15.6343C14.2174 16.0914 13.2574 14.5829 12.206 14.3086C12.1603 14.6286 11.7946 14.6743 11.886 15.0857C12.4803 16 13.8974 16.1371 14.446 17.0971C13.0746 16.96 12.526 16 11.4289 15.5429C11.4746 15.9543 11.2917 16.0914 11.2003 16.32C12.2974 16.8229 13.4403 17.8743 14.5374 17.9657C14.1717 18.6057 13.166 18.0114 12.6631 17.7371C12.0231 17.3714 11.3831 16.7771 10.8803 16.5029C11.0631 16.8686 10.7431 17.0057 10.6517 17.3714C11.5203 18.0571 12.8917 18.7886 13.5317 19.3829C12.2974 19.4743 11.3831 18.24 10.4231 17.7371C9.50886 20.0686 12.846 19.7486 13.5317 21.1657C12.2517 20.6171 10.8346 20.16 9.87457 19.2914C9.966 19.7486 9.69172 19.84 9.78314 20.2971C10.6974 20.9371 12.3889 21.9886 13.5774 22.4C12.1603 22.7657 10.8803 21.1657 9.60029 20.7543C9.69172 21.0743 9.46314 21.0286 9.50886 21.3029C10.8346 22.6286 12.846 23.3143 14.7203 24.0914C12.2517 24.1829 11.0174 22.4457 9.28029 22.2171C9.82886 23.4514 11.2917 23.1314 12.0689 24C13.3489 23.9086 14.4003 24.8229 15.6346 24.8686C16.8689 24.96 18.286 24.9143 19.5203 24.96C23.4517 25.0971 27.2917 26.1029 31.086 25.8286C32.0003 25.7829 32.8689 25.4171 33.7374 25.3714C36.8917 25.2343 41.0974 26.6514 44.0689 25.6914C45.7146 25.7829 47.1317 25.5543 48.7317 25.3714C50.4231 25.1886 52.3431 24.9143 53.486 24.5943C53.8517 24.5029 54.4917 24.2286 54.5831 23.8171C53.1203 24.3657 50.8803 24.6857 49.4631 24.9143C49.4631 24.7771 49.326 24.7771 49.3717 24.5943C50.9717 24.2286 53.3946 23.9086 54.9488 23.1314C54.9488 22.9029 54.9488 22.6743 54.9488 22.4457C54.5831 22.6286 54.2174 22.8114 53.7146 22.9943C52.4346 23.4514 50.4689 24.2743 49.8289 23.5429C51.8403 23.2686 53.486 22.6743 54.8117 21.76C54.6289 21.76 54.7203 21.4857 54.7203 21.3029C53.3031 21.2114 51.3374 22.6743 50.0574 22.3086C51.5203 21.6686 53.2117 21.3029 54.6289 20.6629C54.6289 20.2514 54.446 20.0229 54.3089 19.7943C53.3031 20.3886 51.7946 21.3029 50.3317 20.8914C51.5203 20.6629 53.0746 20.16 54.126 19.4286C54.0803 18.9714 53.806 18.7886 53.806 18.3314C52.846 18.6971 51.4289 19.6114 50.1489 19.5657C51.246 19.0629 52.3889 18.6514 53.3489 18.0114C53.3489 17.6457 53.0746 17.6457 53.1203 17.2343C51.886 17.6 50.6517 18.7429 49.326 18.3314C50.3774 18.0114 51.7489 17.5086 52.7546 16.8686C52.846 16.2743 52.1146 16.3657 52.4346 15.8629C51.3831 16.1829 50.2403 17.6457 49.326 17.0971C50.5603 16.7314 51.1089 15.7714 52.1146 15.6343C52.0689 15.04 51.6574 14.7657 51.4289 14.3086C50.5603 14.6743 49.3717 15.36 48.4117 15.3143C49.0974 14.6286 50.286 14.4457 51.2003 13.9886C51.1089 13.44 50.5603 13.3486 50.4231 12.8914C49.326 13.0743 47.9546 14.3543 47.086 13.6686C48.2289 13.6229 48.7774 12.9829 49.966 12.5714C49.7374 12.2057 49.4174 11.9314 49.0974 11.7029C48.3203 11.8857 47.3603 12.9829 46.5374 12.3886C47.3146 12.16 48.0003 11.7943 48.6403 11.3829C48.6403 10.9714 48.1831 10.9257 48.0917 10.6057C46.8574 10.6514 46.2174 11.7486 45.2117 11.2914C45.8517 10.7886 46.9031 10.6971 47.5431 10.1943C47.0403 10.0114 46.8574 9.55428 46.3089 9.41714C45.6689 9.41714 44.8003 10.2857 44.0689 9.73714C44.5717 9.55428 45.1203 9.37143 45.6231 9.18857C45.5317 8.86857 44.8917 8.50286 44.7546 8.64C44.3889 8.96 42.7889 9.64571 42.4231 9.46286ZM26.2403 34.88C26.5146 34.9714 26.7431 35.1086 26.6974 35.5657C27.886 36.3429 28.0689 38.1714 29.1203 38.8114C27.9774 36.8 27.246 34.3771 25.7831 32.6857C25.1889 31.36 25.0517 30.2171 23.9089 29.44C23.9089 29.3029 24.046 29.3029 24.0003 29.12C23.5431 29.2571 23.5889 28.8914 23.2231 28.8914C23.1774 31.4971 25.6003 32.5943 26.2403 34.88ZM24.686 28.9829C24.7317 28.7543 25.006 28.7543 25.006 28.5257C24.4574 28.5714 24.046 28.2057 23.9089 28.6171C24.366 28.5714 24.2746 29.0286 24.686 28.9829ZM29.4403 38.1257C29.5317 40 31.1774 41.28 32.2289 42.56C32.5946 42.5143 33.0974 42.24 33.326 42.4686C33.4174 42.8343 33.2346 42.88 33.0974 43.0171C33.5546 43.0171 34.0574 42.7429 34.1946 43.2457C34.0574 43.7029 33.2346 43.2 33.326 43.5657C33.966 43.9314 35.1546 42.7886 35.6574 43.6571C35.2003 43.8857 34.1946 43.6114 34.0117 44.1143C34.6974 44.2057 35.1089 44.0229 36.0231 43.8857C36.0231 44.1143 36.3431 44.0229 36.2517 44.3429C35.7489 44.3886 35.566 44.6629 34.926 44.5714C35.2917 45.6229 36.9831 43.8857 36.8003 45.2571C36.4803 45.2571 36.1146 45.2571 35.7946 45.2571C36.1603 46.2171 37.6689 44.5257 37.8974 45.3486C37.6689 45.8057 36.846 45.7143 36.4346 46.0343C37.0289 46.72 37.9431 45.4857 38.446 46.1257C38.3089 46.6286 37.3946 46.3543 37.3489 46.9029C38.126 47.04 38.8117 46.08 39.2231 46.9029C38.9489 47.1314 38.3089 47.04 38.126 47.36C38.5374 47.7714 38.9489 48.1829 39.4517 48.4571C39.1317 47.9086 40.366 47.7714 40.686 48.1371C40.5031 48.6857 39.7717 48.32 39.5889 48.6857C40.0917 49.4171 41.0974 48.32 41.3717 49.2343C41.006 49.1886 40.9603 49.4171 40.5946 49.3257C40.686 49.6457 40.9603 49.7829 41.1431 50.0114C41.6917 50.0114 42.1031 49.5086 42.2403 50.24C42.1489 50.6971 41.6917 50.1029 41.6917 50.56C42.2403 50.7886 42.606 51.6571 42.4689 52.2057C45.3946 51.2 46.3546 48.2743 47.5889 45.5314C46.9031 44.9371 45.9889 44.3886 45.7146 43.4286C45.5774 42.9257 45.7146 42.3771 45.6231 41.8743C45.0289 39.04 42.7431 36.9371 42.5146 34.6514C42.3317 32.96 42.7431 32 42.5146 30.08C42.0574 29.8057 41.6003 29.8971 41.0517 29.9886C40.2289 32.0457 40.9603 34.6514 40.366 37.12C39.5889 37.44 38.4917 37.3943 38.0346 37.9886C40.9603 38.72 43.0174 40.8686 43.7946 43.3371C41.966 40.8229 39.5431 38.3543 35.886 37.9886C32.7774 36.9829 35.3831 31.9543 33.7831 29.44C33.326 29.4857 33.3717 29.3029 33.006 29.44C32.2746 32.1371 32.6403 37.12 33.0974 39.3143C32.9146 39.5429 32.8231 39.2229 32.4117 39.3143C30.3089 35.5657 28.9831 31.04 25.4174 29.2114C25.326 29.2114 25.2803 29.3029 25.1889 29.3029C26.0117 32.8686 28.206 35.0629 29.4403 38.1257ZM28.4346 30.9943C28.2517 29.9886 27.9317 29.6686 27.7489 28.5714C27.1546 28.4343 26.1489 28.4343 25.7374 28.8C26.8346 29.3486 27.7031 30.08 28.4346 30.9943ZM28.7546 31.68C30.0346 33.28 31.1317 35.8857 32.0917 37.2571C32.1374 37.3029 32.0003 37.8514 32.3203 37.4857C32.2289 33.6 30.9946 30.8114 28.8917 28.8C28.6174 28.8 28.3431 28.8 28.3431 29.0286C28.526 29.8057 29.2117 30.9943 28.7546 31.68ZM32.0917 32.9143C32.2746 31.9086 31.9546 29.9429 32.8689 29.0286C31.8631 28.8914 30.7203 28.8914 29.7603 28.7086C29.7603 28.8457 29.7146 28.9371 29.6689 29.0286C30.9946 29.8057 31.3146 31.5429 32.0917 32.9143ZM39.6803 28.3429C36.526 28.5257 33.4631 28.0229 30.9946 28.3429C33.0517 28.3429 37.0746 28.8914 39.6803 28.3429ZM42.0117 52.5714C42.1031 51.52 41.6003 51.0629 41.006 50.6971C40.366 51.6114 41.0974 52.8 42.0117 52.5714ZM43.0174 54.9029C46.7203 52.5714 49.966 49.8743 50.7889 44.6629C50.0574 43.4743 48.5489 43.2457 47.3603 42.88C47.3603 43.2457 47.9546 43.0629 48.046 43.3371C48.6403 44.6629 48.0003 46.5829 47.3603 47.68C46.0346 50.0114 43.9774 53.3943 40.9146 52.8914C41.6917 53.44 42.4231 54.1257 43.0174 54.9029ZM43.886 57.2343C44.1603 56.9143 43.3374 56.4114 43.2003 57.0057C43.4289 57.0971 43.6117 57.1886 43.886 57.2343ZM43.7946 56.1371C44.0231 56.1371 44.1603 56.0457 44.2517 55.9086C44.0231 55.8629 44.0689 55.5886 43.7031 55.68C43.6574 55.8629 43.7031 56 43.7946 56.1371ZM44.6631 57.8743C44.8003 57.4629 44.0231 57.4171 43.9774 57.7829C44.3889 57.6 44.2517 57.8743 44.6631 57.8743ZM44.8003 55.36C44.526 55.3143 44.3431 55.1314 44.2517 55.4514C44.3889 55.6343 44.8003 55.8171 44.8003 55.36ZM44.4346 56.7771C44.6631 56.8228 44.6631 56.64 44.8917 56.6857C44.8917 56.3657 44.5717 56.4114 44.4346 56.2286C44.2517 56.4571 44.4346 56.5028 44.4346 56.7771ZM45.3489 28.1143C45.1203 28.2057 44.2517 28.2057 44.4803 28.3429C44.7089 28.2514 45.3946 28.5714 45.3489 28.1143ZM45.5774 54.5829C45.3031 54.6286 44.7089 54.9486 44.8917 55.1314C44.9831 55.2229 45.8974 55.1314 45.5774 54.5829ZM45.4403 56.2286C45.486 55.9543 45.3031 55.8629 44.9831 55.9086C45.0289 56.1829 45.2574 56.4114 45.4403 56.2286ZM45.5774 57.0971C45.3946 56.8686 45.2117 57.1429 45.1203 57.3257C45.2574 57.5086 45.6231 57.4629 45.5774 57.0971ZM45.8974 59.1086C45.9431 58.6971 45.3031 58.4686 45.2117 58.88C45.4403 58.9714 45.5317 59.1543 45.8974 59.1086ZM46.3546 55.2229C46.0803 54.8114 45.6689 55.2686 45.5774 55.68C45.9431 55.8629 46.2631 55.6343 46.3546 55.2229ZM45.9889 57.0057C46.0346 56.8686 46.1717 56.8229 46.2174 56.6857C46.0803 56.64 45.9889 56.5486 45.7603 56.5943C45.7603 56.8229 45.806 56.96 45.9889 57.0057ZM46.3546 54.2171C46.0346 54.3086 46.0803 54.08 45.806 54.1257C45.806 54.5829 46.2174 54.6286 46.3546 54.2171ZM46.766 58.56C46.7203 58.2857 46.4917 58.1486 46.3089 58.0114C46.2631 58.1486 46.126 58.1943 46.0803 58.3314C46.3546 58.4229 46.4917 58.88 46.766 58.56ZM46.9031 55.68C46.5374 55.7257 46.4003 56 46.2174 56.2286C46.4917 56.7314 47.1317 55.9543 46.9031 55.68ZM47.7717 44.8914C47.726 44.4343 47.8174 44.0686 47.4517 43.5657C46.9489 43.3829 46.5374 43.52 46.3546 43.2457C46.446 42.6971 47.0403 43.1543 47.2231 42.9257C46.766 42.6971 46.4003 43.0629 46.2174 42.6057C46.0803 43.9314 47.3146 44.5257 47.7717 44.8914ZM46.9031 54.9943C46.9489 54.72 46.766 54.6286 46.446 54.6743C46.446 54.9486 46.7203 55.2229 46.9031 54.9943ZM47.7717 53.2114C47.7717 53.3486 47.9089 53.3486 47.8631 53.5314C47.6803 53.9429 47.0403 53.8971 46.9946 54.4C48.1831 53.8971 48.9603 52.0229 49.8746 50.8343C49.4631 50.88 49.5089 51.4286 49.006 51.3829C49.0974 50.7429 50.0574 50.3771 49.8746 49.8286C49.006 50.24 48.8231 51.3829 48.0917 51.9314C48.2746 51.9314 48.366 52.0229 48.4117 52.16C47.8631 52.8 46.9031 53.12 46.4003 53.8057C46.9946 54.1714 47.2689 53.3486 47.7717 53.2114ZM47.5431 52.0229C47.3146 52.3886 46.446 52.7543 46.5374 53.12C46.9031 52.8457 47.5889 52.3429 47.5431 52.0229ZM47.2231 58.1029C47.4517 57.8286 47.4517 57.7829 47.2231 57.5543C46.9946 57.6 46.766 57.6 46.766 57.8743C46.9946 57.8743 46.9031 58.1943 47.2231 58.1029ZM46.9946 56.9143C47.3146 56.8686 47.4974 56.6857 47.6803 56.4571C47.5431 56.4114 47.4974 56.32 47.4517 56.2286C47.086 56.2286 46.8117 56.6857 46.9946 56.9143ZM47.7717 60.1143C48.0003 60.1143 48.1374 60.0229 48.2289 59.8857C47.9089 59.7486 47.9546 59.2457 47.4517 59.3371C47.4517 59.4743 47.406 59.5657 47.3603 59.6571C47.6346 59.7029 47.7717 59.84 47.7717 60.1143ZM47.6803 58.7886C47.726 58.5143 48.046 58.56 48.0003 58.24C47.7717 57.92 47.1317 58.6514 47.6803 58.7886ZM48.0917 56.7771C47.726 56.8228 47.5889 57.0971 47.406 57.3257C47.726 57.8286 48.4574 57.2343 48.0917 56.7771ZM50.1031 52.0229C50.0117 52.2057 49.6917 52.3429 49.646 52.0229C50.5146 51.2 51.0174 50.0571 51.6574 49.0057C51.4289 48.96 51.4746 48.6857 51.1089 48.7771C51.0174 49.0971 51.4289 49.0057 51.3374 49.3257C50.4689 50.7429 49.4174 52.0686 48.686 53.3486C49.0517 53.44 48.8231 52.8914 49.2346 53.0286C49.0517 54.08 48.0917 54.3086 47.5889 55.04C48.7774 54.8571 49.6917 52.9371 50.1031 52.0229ZM48.0003 56.2286C48.366 55.9543 47.726 55.5429 47.6803 56C47.8174 56.0457 47.8631 56.1829 48.0003 56.2286ZM48.5489 59.5657C48.686 59.3829 48.8231 59.2457 49.006 59.1086C48.686 59.0171 48.7317 58.56 48.2289 58.6514C48.366 59.0171 47.8631 58.7429 48.0003 59.1086C48.2289 59.2 48.2289 59.5657 48.5489 59.5657ZM48.3203 58.1029C48.4117 57.8286 48.686 57.7829 48.7774 57.5543C48.4117 57.1429 47.8631 58.0571 48.3203 58.1029ZM49.0974 58.88C49.4631 58.88 49.4631 58.6057 49.5546 58.3314C49.326 58.3314 49.1889 58.24 49.2346 58.0114C48.9603 58.1029 48.7317 58.1486 48.686 58.4686C48.9603 58.4686 49.0974 58.6057 49.0974 58.88ZM49.0974 60.3429C49.4631 60.2971 49.6003 60.0229 49.7831 59.7943C49.4631 59.7943 49.5089 59.4743 49.2346 59.4743C49.0517 59.7486 48.686 60.0229 49.0974 60.3429ZM49.2346 57.3257C49.2803 57.0514 49.1889 56.8686 48.9146 56.8686C48.8689 57.1886 48.9146 57.3714 49.2346 57.3257ZM50.0117 58.24C50.3317 57.9657 49.5546 57.1886 49.4631 57.6914C49.6917 57.7828 49.646 58.24 50.0117 58.24ZM50.1031 59.5657C50.4689 59.2914 50.1946 59.0629 49.8746 58.88C49.8289 59.1086 49.5546 59.0629 49.646 59.4286C49.8746 59.4286 49.9203 59.5657 50.1031 59.5657ZM50.6517 48.6857C50.4689 49.0057 49.9203 49.5086 50.1031 49.7829C50.1946 49.3714 50.8803 48.96 50.6517 48.6857ZM50.7889 59.0171C50.7431 58.7429 50.9717 58.7886 50.8803 58.4686C50.606 58.3771 50.1946 58.1943 50.1946 58.6971C50.5146 58.6514 50.4689 59.0171 50.7889 59.0171ZM51.886 48.6857C51.9774 48.2743 52.0689 47.9086 51.6574 47.8171C51.5203 48.1829 51.3831 48.5029 51.886 48.6857ZM52.3431 46.9943C52.4346 46.7657 52.6174 46.4914 52.4346 46.3086C52.0689 46.2629 51.9774 46.9943 52.3431 46.9943ZM52.9831 49.5543C53.0289 49.1429 53.1203 49.0514 52.7546 48.8686C52.7089 49.0971 52.526 49.1429 52.526 49.4171C52.7546 49.4171 52.8003 49.5543 52.9831 49.5543ZM53.6689 46.9029C53.3489 46.7657 53.2117 46.4 52.8917 46.2171C52.9831 46.5371 53.3946 47.1314 53.6689 46.9029ZM53.4403 48.2286C53.6689 47.9543 53.5774 47.36 53.2117 47.36C53.0746 47.68 53.1203 48.0914 53.4403 48.2286ZM53.6689 50.1029C53.8974 49.8286 53.4403 49.6914 53.3489 49.4171C53.2574 49.8743 53.2117 50.0571 53.6689 50.1029ZM53.8974 48.9143C54.4003 48.8686 54.446 48.0914 53.8974 48.1371C53.8517 48.5029 53.7146 48.5486 53.8974 48.9143ZM54.2174 50.7886C54.446 50.56 54.2174 50.24 53.8974 50.24C53.9431 50.4686 53.9889 50.6971 54.2174 50.7886ZM54.766 48.7771C54.446 48.7771 54.446 49.0514 54.446 49.3257C54.766 49.3714 54.6746 48.96 54.766 48.7771ZM55.1317 50.0114C55.5431 50.1029 55.406 49.1886 55.0403 49.3257C54.9946 49.6 54.9946 49.8743 55.1317 50.0114ZM55.6803 51.3371C55.7717 50.88 55.9546 50.4686 56.1374 50.1029C56.0003 50.0571 55.9546 49.92 55.8174 49.8743C55.7717 50.24 55.3603 50.9257 55.4974 51.1086C55.5889 50.6971 55.4517 51.4286 55.6803 51.3371ZM58.2403 24.9143C58.4231 26.6514 56.0003 26.3771 55.5889 27.1543C56.8689 26.6971 59.2917 26.5143 58.2403 24.9143ZM56.7774 49.5543C56.686 49.7829 56.5946 49.9657 56.5488 50.24C56.8688 50.2857 57.006 49.6914 56.7774 49.5543Z" fill="black"/>
</svg>
