<svg width="66" height="66" viewBox="0 0 66 66" fill="none" xmlns="http://www.w3.org/2000/svg">
<path fill-rule="evenodd" clip-rule="evenodd" d="M27.7878 55.8993C27.3361 56.5887 26.4284 57.4188 26.4803 58.1955C27.0249 57.6883 28.205 56.6275 27.7878 55.8993Z" fill="black"/>
<path fill-rule="evenodd" clip-rule="evenodd" d="M28.4645 37.5619C29.1502 37.5565 30.6518 36.6759 30.9693 36.3534C30.2382 36.4049 28.9619 36.8722 28.4645 37.5619Z" fill="black"/>
<path fill-rule="evenodd" clip-rule="evenodd" d="M41.4889 8.29159C41.3061 8.29304 41.1689 8.29414 40.9861 8.29559C40.1833 10.8163 39.2872 13.1093 38.1637 15.5412C37.2443 14.9085 36.1062 15.5118 34.9162 15.3384C31.1634 14.8197 27.366 14.4385 23.4383 14.927C22.8401 14.4289 21.1867 13.482 20.0439 13.4911C20.0181 10.2455 16.0868 10.2768 15.5178 7.72123C15.3749 6.99092 15.7834 6.62194 15.2747 5.89454C15.4967 5.06989 16.0892 4.83659 16.2212 4.19552C15.443 4.06457 15.1216 3.88427 14.528 3.98042C14.4453 5.07826 14.6808 5.94498 14.1852 6.86324C15.1489 7.31273 14.7908 8.27561 15.2998 9.04872C16.4104 10.7314 19.52 10.8437 19.4515 13.7244C18.8608 14.1862 18.4545 14.8295 18.0021 15.4274C17.6796 15.11 16.7657 15.163 16.3089 15.2123C15.0301 15.3596 13.7109 16.193 12.4796 16.5686C12.3004 17.0271 11.2987 17.538 11.5331 18.2676C11.9547 19.5443 13.5649 20.8115 14.4447 22.2217C16.1575 24.9052 17.5994 28.0024 18.9879 30.14C18.9444 30.4147 18.6255 30.5543 18.8555 30.7354C18.9959 31.1457 19.5894 31.0495 19.8202 31.322C20.7011 32.8693 21.5349 34.2342 22.5072 35.7807C23.387 37.1909 24.9518 38.5042 25.4217 40.1005C25.704 41.104 25.4874 42.6144 25.4534 44.0775C25.3102 49.0617 25.2548 53.588 25.3438 59.0275C24.57 59.4451 23.4783 60.1395 23.4385 60.8713C24.171 61.0026 24.8853 58.8483 25.8536 59.892C25.309 60.3992 24.3074 60.9101 24.1746 61.4597C23.7606 61.143 22.8935 61.3328 22.3432 61.1086C23.158 60.0963 24.4793 59.5372 25.202 58.4343C24.5155 58.3483 24.0653 59.2205 23.5201 59.6363C22.9298 60.1439 22.2009 60.4697 21.8403 61.1126C20.65 60.8935 19.5949 60.4447 19.1755 59.4423C20.2621 58.1079 23.1877 58.0846 25.1991 58.0686C24.1433 57.5284 22.2241 57.6351 21.0831 57.8728C20.0335 58.1097 19.0797 58.8945 18.5812 59.447C18.5849 59.9042 18.997 59.9923 18.9557 60.5412C22.2166 62.4353 27.3832 62.5313 31.9926 61.5346C32.7229 61.3916 34.227 60.8311 34.4048 60.1896C34.493 59.7775 34.2589 59.0936 34.1668 59.0029C33.062 58.0517 30.271 57.7539 28.7164 57.7206C28.7101 51.1833 28.9069 47.2044 29.0856 40.94C30.5763 38.688 31.8849 36.529 33.3756 34.277C35.5889 30.9221 38.3512 27.6086 40.291 24.3473C40.7423 23.6123 41.01 22.7873 41.4613 22.0522C42.4543 20.4443 44.3633 19.0576 43.8455 17.1874C43.1976 16.1868 41.96 15.7852 40.6768 15.384C41.205 12.8197 42.7011 11.2535 43.2754 8.73452C45.2217 6.29609 49.6192 7.40396 53.2748 7.19199C53.7729 6.59372 53.9028 5.67837 54.0784 4.76266C50.3295 4.74679 43.4632 3.61286 41.4889 8.29159ZM19.3662 14.5022C19.8687 14.4525 19.2774 14.8229 19.5988 15.0033C19.6485 15.5057 19.2777 14.8687 19.236 15.3719C19.4272 16.4218 21.1607 15.9508 21.0616 14.9916C20.9669 14.5809 20.3745 14.8142 20.3273 14.6317C20.3258 14.4489 20.3248 14.3117 20.3233 14.1289C21.0083 14.032 21.5162 14.668 21.8804 14.4822C22.2502 14.9821 21.5249 15.7651 21.6664 16.3125C22.1689 16.2628 22.3024 15.8046 22.3902 15.3467C22.991 16.1648 21.3954 16.7261 21.2191 17.5504C22.1338 17.5889 22.58 16.2138 23.2609 15.6141C22.9061 16.9884 21.8141 17.6371 20.9982 18.5122C22.1425 18.686 22.6333 17.1734 23.2675 16.4369C23.545 16.8462 23.0012 17.4448 23.0513 17.993C22.3652 17.9527 21.779 18.9632 21.0037 19.1979C17.3463 19.1813 17.3226 16.21 19.3662 14.5022ZM17.3197 15.8443C16.3091 20.9725 25.1335 21.1308 23.7184 15.6562C28.1475 14.9809 32.8603 15.492 36.7484 15.781C37.4345 15.8213 37.7555 15.9558 38.0781 16.2733C34.4192 16.0738 30.9414 15.6444 26.8737 15.7682C28.7995 16.4843 32.315 15.9077 34.9696 16.298C35.9764 16.4272 37.0307 16.7845 37.7646 17.0987C35.0248 17.4862 31.4015 16.0064 28.3438 16.6708C31.3162 16.7843 34.2908 17.172 37.4055 17.9244C34.9889 18.7208 32.7834 17.3212 30.4103 17.843C30.5976 18.3901 31.4636 18.0632 31.875 18.0599C33.5214 18.1382 35.3524 18.4436 36.9549 18.7509C37.0028 19.0248 36.7285 19.027 36.8225 19.3462C35.2171 18.6733 33.2983 18.8257 31.7444 18.8838C31.978 19.522 32.7519 19.1044 33.3004 19.1C34.3522 19.1373 35.5897 19.5389 36.5508 19.6684C36.4695 20.9491 35.0942 20.4572 34.2717 20.5094C32.3532 20.7076 29.9348 21.2754 27.8766 21.1547C25.7274 21.0804 23.8974 20.9121 21.3357 20.7039C20.1007 20.6223 18.8683 20.8607 17.9529 20.7308C15.5272 20.3844 13.4607 19.2123 12.1252 17.9886C12.7981 16.3832 15.3544 15.9056 17.3197 15.8443ZM17.9128 27.1771C18.8735 27.2608 20.0247 28.3031 20.7975 27.7484C19.6935 26.8886 17.4557 27.1807 17.0315 25.584C18.1301 25.7581 19.0977 26.7105 20.1934 26.5189C19.179 25.4298 16.8037 25.6773 16.1971 24.1278C17.2525 24.6222 18.3536 25.1163 19.7264 25.2883C19.492 24.5587 18.3492 24.5678 17.5235 24.2086C16.652 23.8499 15.8263 23.4907 15.3644 22.9001C16.2776 22.7557 17.2448 23.6623 18.388 23.6989C17.4178 22.4266 14.7694 22.8134 14.3888 20.9421C15.5363 21.5272 16.6839 22.1124 18.0125 22.4675C17.5024 21.5573 15.3967 21.2083 14.3848 20.4392C13.9313 20.9 13.8805 20.2604 13.5579 19.9429C14.1043 19.6643 15.1202 20.9362 16.353 20.7436C17.0884 21.2406 18.003 21.279 18.8719 21.3178C24.8632 21.6358 31.3559 21.767 36.1038 20.952C35.1639 23.4739 34.3633 26.2689 33.3798 29.0654C29.3509 28.3203 24.2318 28.4525 21.1745 29.1626C20.6168 28.0241 18.1538 28.7295 17.9128 27.1771ZM24.0566 29.4139C24.4237 29.5939 24.4223 29.411 25.0165 29.4063C24.2888 29.8692 23.7489 30.9707 22.8797 30.8862C23.241 30.3347 24.1531 30.0532 24.0566 29.4139ZM22.6043 30.7512C21.6897 30.7128 21.1393 30.4886 20.3157 30.4037C20.9024 29.439 22.917 29.8344 23.6909 29.4168C23.8777 29.9182 22.7824 30.1555 22.6043 30.7512ZM25.7468 29.2633C26.0694 29.5808 26.34 29.1214 26.8439 29.2546C25.9809 29.9472 25.3529 31.4608 23.7032 30.9711C24.246 30.2353 25.3423 30.1351 25.7468 29.2633ZM27.6668 29.248C27.033 30.0302 26.5842 31.0853 25.2593 31.1873C26.0774 30.5864 26.8487 29.8488 27.6668 29.248ZM28.3982 29.2422C28.5361 29.3325 28.7196 29.4225 28.9935 29.3746C28.3598 30.1568 27.8185 31.0754 26.4939 31.2231C26.9445 30.3967 28.0862 30.2504 28.3982 29.2422ZM30.2278 29.3648C30.0047 30.0523 28.9602 30.9292 27.9567 31.2115C28.453 30.3847 29.5443 29.6445 30.2278 29.3648ZM31.6449 29.3535C31.0115 30.1814 30.3323 31.0097 29.0081 31.2031C29.8255 30.5109 30.5046 29.6826 31.6449 29.3535ZM32.0113 29.442C32.1035 29.5327 32.2867 29.577 32.5153 29.5751C32.0168 30.1277 31.4722 30.6349 30.6973 30.9154C31.0583 30.3182 31.8343 30.1749 32.0113 29.442ZM32.9742 29.8001C33.0693 30.2565 32.4351 30.993 31.5201 30.9088C31.8818 30.4031 32.6582 30.3055 32.9742 29.8001ZM19.7175 29.9056C19.2128 29.6811 19.0709 29.0879 18.8841 28.5865C19.5263 28.8557 20.3037 28.8952 20.7192 29.3948C20.0784 29.3085 19.9442 29.6752 19.7175 29.9056ZM24.6778 61.5014C25.358 60.8103 26.0843 60.1645 27.1796 59.9272C26.8187 60.5243 25.916 61.9944 24.6778 61.5014ZM28.4961 41.539C28.9631 42.7696 27.0914 43.1045 26.9648 44.4312C27.0116 44.568 27.1941 44.5208 27.1952 44.658C27.7408 44.2879 27.8718 43.5097 28.3713 43.0943C28.6957 43.6403 28.1025 43.7822 28.5179 44.2817C27.562 44.7922 26.749 46.033 26.6191 46.9484C27.3915 46.3479 27.7031 45.294 28.5216 44.7389C28.4875 46.202 27.3037 46.8058 26.8571 48.1351C27.7246 47.991 27.7166 46.9853 28.3997 46.6599C28.2746 48.1695 27.0429 48.4993 26.5952 49.6915C27.6002 49.5921 27.5454 48.4496 28.4121 48.2141C28.2431 49.9527 27.0607 50.7392 26.3849 51.979C26.4313 52.07 26.4781 52.2068 26.6153 52.2057C27.2505 51.6063 27.5171 50.6442 28.2903 50.1352C28.3846 50.5001 28.1151 51.0966 28.2979 51.0951C27.7515 51.3738 26.665 52.7082 26.6258 53.5314C27.3082 53.1145 27.5763 52.3352 28.0741 51.6912C28.4939 52.7393 26.9919 53.5742 26.542 54.4921C27.3682 54.8969 27.6326 53.6605 27.9943 53.1547C28.5988 54.43 26.7775 55.3588 26.467 56.5499C27.518 56.4958 27.3714 55.3083 28.146 54.9822C28.2034 56.4446 28.0746 57.4971 28.174 58.5021C27.2097 57.9611 27.6338 59.5578 26.7189 59.4737C26.9873 58.7401 27.6244 58.3693 27.8928 57.6357C27.1146 57.5047 26.8056 58.8787 26.2149 59.3405C25.5309 53.8144 26.0256 47.0445 26.065 40.5069C26.7982 40.7296 27.3961 41.182 28.3535 40.8544C28.0372 41.314 27.8126 41.8187 27.4041 42.1877C27.8188 42.5958 28.2715 42.0436 28.4961 41.539ZM32.5335 60.5703C32.852 60.3849 33.078 60.0631 33.4887 59.9684C33.3088 60.3355 32.9014 60.8416 32.5335 60.5703ZM32.7508 59.1513C31.8431 59.9815 31.0272 60.8566 29.7508 61.3239C30.3839 60.4502 31.2477 59.8491 32.1572 59.2475C30.8744 58.892 30.0229 61.0474 28.6548 61.4697C29.5607 60.4111 30.7891 59.6698 31.7868 58.6562C32.1989 58.7443 32.52 58.8789 32.7508 59.1513ZM31.0536 58.4334C31.4683 58.8415 29.9637 59.3564 29.8774 59.9971C28.9664 60.4158 28.5162 61.288 27.467 61.5706C28.0094 60.7891 29.0564 60.2322 29.7363 59.4954C30.1448 59.1264 30.3203 58.2107 31.0536 58.4334ZM30.0936 58.4411C28.7756 59.4116 28.0565 60.9716 26.3703 61.6251C26.9123 60.7979 27.7761 60.1967 28.6406 59.6869C28.5441 59.0477 28.8619 58.7709 28.6301 58.3613C29.3158 58.3558 29.4094 58.6294 30.0936 58.4411ZM31.2231 33.7913C31.7296 34.2444 32.6354 33.1857 33.504 33.1788C32.9645 34.326 31.042 34.0213 30.5022 35.1228C30.5494 35.3053 30.639 35.076 30.8679 35.1199C30.4609 35.6717 29.6391 35.8154 29.0481 36.2315C29.875 36.7278 30.9626 35.5306 31.6908 35.1133C30.8215 35.0288 32.1874 34.3322 32.7813 34.2817C32.1047 35.43 31.2895 36.3965 30.6587 37.5445C29.8318 37.0482 28.9713 38.0608 28.1503 38.2959C28.8864 38.8843 29.5626 37.6903 30.4312 37.6834C29.9806 38.5099 28.6549 38.5205 28.02 39.1655C28.5719 39.5726 28.9771 38.7922 29.5725 38.9246C29.1244 40.071 28.348 40.1687 26.9328 40.4085C26.6102 40.0911 26.4698 39.6807 25.8317 39.9144C25.9176 39.228 25.3237 39.2784 25.4554 38.5916C25.9593 38.7248 26.5104 39.0404 27.0115 38.8078C26.2285 38.0826 24.5836 38.1871 24.2084 37.0015C24.9409 37.1328 25.7685 37.7206 26.4981 37.4862C25.6676 36.5327 23.4313 37.0077 23.1 35.5932C23.9236 35.678 24.7983 36.4482 25.7572 36.3035C25.1567 35.5311 23.5539 35.1781 22.5935 35.14C22.636 34.7283 22.361 34.639 22.222 34.4115C23.1352 34.2671 24.1017 35.0823 25.2449 35.1189C24.4605 34.2109 22.9044 33.9947 21.6212 33.5934C21.6647 33.3188 21.5718 33.1367 21.3886 33.0924C22.2561 32.9484 23.0408 33.9022 24.2744 33.8009C23.671 32.6628 21.2515 33.0935 20.5095 31.7737C21.3313 31.63 22.161 32.492 23.1674 32.5754C22.9773 31.6626 20.8255 31.2683 20.1398 31.2737C20.2711 30.5412 21.648 31.216 21.9701 31.4877C22.8365 31.2066 23.2973 31.66 24.1197 31.6078C24.0312 31.9742 24.0301 31.8371 24.2609 32.1095C24.8965 31.5559 26.3147 31.6817 26.774 31.9524C28.235 31.7122 30.6077 31.1447 31.4824 31.9149C31.7095 31.7302 31.937 31.5912 32.2098 31.4062C32.622 31.4944 32.2574 31.6344 32.3517 31.9994C32.807 31.7672 33.4005 31.671 33.8098 31.3935C33.6331 32.172 31.9443 32.5055 31.1719 33.106C32.0891 33.4644 33.3135 32.2203 34.1784 31.7563C34.5064 32.7594 31.7212 33.193 31.2231 33.7913ZM34.9333 28.9616C34.5223 29.0106 34.3877 29.3317 33.838 29.1989C34.8229 26.5852 35.6236 23.7902 36.5621 21.0855C37.062 20.7158 37.5195 20.7579 38.1134 20.7074C36.8513 22.9576 36.5103 26.0689 34.9253 27.9559C35.156 28.2284 34.9768 28.6869 34.9333 28.9616ZM35.3019 29.3244C35.4347 28.7747 36.2125 28.86 36.3914 28.3557C36.1599 27.9918 35.8911 28.6797 35.5704 28.5908C35.7006 27.7211 36.9827 27.9852 37.2512 27.2516C37.4384 27.7987 36.267 29.9567 35.3019 29.3244ZM36.1113 27.6264C35.9665 26.6676 37.75 26.7448 38.3835 25.9169C37.6952 25.6023 37.1993 26.4749 36.4682 26.5264C36.7791 25.3811 38.2884 25.4605 39.2444 24.95C38.6149 26.2808 37.5244 27.1123 36.1113 27.6264ZM38.7193 22.1655C39.6796 22.2036 40.6316 21.1902 41.7269 20.9529C41.1439 22.3748 39.0411 22.3915 37.907 23.4977C38.7299 23.4912 39.9129 22.796 40.7782 22.3777C40.3821 24.3009 38.5576 24.8183 36.8252 25.4264C36.8227 25.1064 37.0498 24.9217 37.0472 24.6018C38.2796 24.3634 39.5117 24.0793 40.1909 23.251C39.1413 23.4879 38.3221 23.9516 37.3186 24.2339C37.5359 22.815 38.4439 22.0306 38.6155 20.612C39.3001 20.4694 39.8 20.0997 40.6686 20.0928C40.3976 20.5064 39.758 20.5572 39.3487 20.8347C40.493 21.0085 41.4446 19.9495 42.5856 19.7118C41.7269 20.9529 39.6245 21.0154 38.7193 22.1655ZM43.0227 17.1939C43.1294 19.1132 40.617 19.3617 38.9297 19.878C39.3784 18.823 39.7321 17.3116 40.3626 16.1179C41.2762 16.0192 42.514 16.4665 43.0227 17.1939ZM38.2381 19.1521C38.3336 19.6542 38.3336 19.6542 38.2458 20.1121C37.789 20.1614 37.7894 20.2071 37.1498 20.2579C38.2167 16.455 39.9744 13.2867 41.0413 9.48376C41.3631 9.70978 41.8663 9.75149 42.2338 9.97714C40.8879 13.188 39.9541 16.4869 38.2381 19.1521ZM41.6337 9.25047C41.6736 8.5187 42.3194 9.245 42.5948 9.37996C42.3234 9.74785 41.9533 9.2022 41.6337 9.25047ZM42.1307 8.51506C42.1289 8.28649 42.2657 8.23969 42.2638 8.01112C42.6756 8.05356 42.8153 8.37246 42.8639 8.7378C42.4986 8.78642 42.4503 8.46679 42.1307 8.51506ZM42.8106 7.77819C42.7166 7.45893 43.0373 7.54781 43.0351 7.27353C43.2644 7.36313 43.3577 7.59097 43.4056 7.86488C43.1338 8.18706 43.2216 7.7292 42.8106 7.77819ZM44.1323 7.26479C43.4008 7.27062 43.5322 6.53812 43.896 6.30664C44.1714 6.4416 44.1747 6.85301 44.1323 7.26479ZM44.8611 6.93898C44.6764 6.71187 44.6732 6.30045 44.6249 5.98083C45.3549 5.79215 44.9496 6.57255 44.8611 6.93898ZM45.7275 6.65779C45.7257 6.42922 45.5381 5.83641 45.7187 5.56068C46.1312 5.69454 46.1382 6.56308 45.7275 6.65779ZM53.1758 6.23275C51.032 6.84412 49.1527 6.21907 46.5492 6.51409C46.2727 6.242 46.7734 5.96372 46.6776 5.41589C48.4593 5.26456 50.9264 5.06205 53.3042 5.13455C53.3996 5.63666 53.2185 5.86668 53.1758 6.23275Z" fill="black"/>
</svg>
