<svg width="64" height="36" viewBox="0 0 64 36" fill="none" xmlns="http://www.w3.org/2000/svg">
<path fill-rule="evenodd" clip-rule="evenodd" d="M43.1543 30.2971C45.2572 29.4743 47.4514 28.56 49.6457 28.1943C47.5886 29.1543 45.3943 30.16 43.1543 30.2971Z" fill="black"/>
<path fill-rule="evenodd" clip-rule="evenodd" d="M31.1316 4.37713C32.4116 5.61142 31.8631 7.75999 31.2688 9.26856C32.9602 8.7657 33.7831 11.0514 35.3831 11.5086C35.7488 12.0114 35.4288 12.8343 34.9716 12.9714C35.3831 13.6114 36.1602 13.7028 36.9374 13.52C37.6231 13.9771 38.8574 14.5257 39.8631 15.12C40.2288 15.2114 40.1374 14.8457 40.2745 14.7086C40.8688 15.2571 41.5545 15.7143 41.8745 16.5371C45.1659 13.5657 48.4574 10.5943 51.9316 7.66856C53.3488 6.47999 54.9031 5.42856 56.4116 4.10284C58.0116 2.6857 60.3431 0.354273 63.1316 0.125702C63.2688 0.308559 63.3145 0.53713 63.6802 0.53713C63.5888 3.09713 61.2116 4.19427 59.4745 5.29142C54.1259 8.67427 49.1888 13.0628 43.7488 16.7657C45.7602 17.8171 48.4574 18.8686 48.2288 21.6571C48.1374 23.0286 46.9488 24.08 46.1259 25.0857C47.9088 24.5371 52.9374 23.2571 53.1202 21.6571C53.3031 20.3314 51.1088 19.5086 49.4174 20.1943C49.0059 19.7371 49.7374 19.7371 49.8288 19.4171C48.7316 19.3257 47.5431 19.3257 47.3145 18.3657C50.6516 18.96 55.5431 20.0114 53.8974 23.8971C53.3031 24.72 52.5259 25.4514 52.2974 26.6857C49.1431 30.5257 43.0631 34.3657 37.2574 35.0057C36.2516 35.0971 35.0174 35.2343 33.8288 35.4171C32.0002 35.6914 30.7659 35.7371 28.8002 35.6914C27.2002 35.6457 25.5088 35.5543 23.9088 35.5543C23.3602 35.5543 22.7202 35.8286 22.1716 35.8286C21.1659 35.7828 19.9774 35.2343 18.8802 35.0514C17.1431 34.7314 16.1374 34.3657 14.5374 33.8628C13.8059 33.6343 12.8002 33.7257 11.8859 33.4514C11.0631 33.2228 10.1488 32.4914 9.09736 31.9886C6.81164 30.8914 5.21164 30.0228 3.56593 28.1486C1.73736 26.0914 0.0459306 24.4457 0.548788 21.2914C1.00593 20.88 1.14307 20.1028 1.46307 19.5543C5.16593 17.7714 9.8745 18.1828 14.1259 17.9543C14.8116 17.04 15.5888 16.0343 15.4516 14.6628C16.5945 13.7943 18.1488 12.3314 19.6574 13.3371C20.9831 12.2857 22.6745 11.8743 24.5488 11.8743C25.0516 10.7771 24.8688 9.90856 25.7374 8.85713C27.1545 7.07427 30.6288 7.43999 31.1316 4.37713ZM1.82879 25.1314C2.28593 24.9028 2.14879 25.2228 2.60593 25.2686C2.60593 25.4971 2.65164 25.68 2.74307 25.8171C3.7945 26.1371 4.98307 26.96 6.44593 27.1428C7.54307 27.28 9.09736 26.6857 9.73736 27.6914C7.77164 27.92 4.57164 27.4171 3.1545 26.7771C3.52022 27.1428 3.88593 27.5543 4.20593 27.9657C5.3945 28.2857 7.08593 27.92 8.41164 28.1028C9.09736 28.1943 10.1945 28.3314 10.2402 29.0171C9.00593 28.5143 5.98879 28.6514 4.84593 28.7428C6.53736 30.16 9.92022 29.2 11.8402 30.48C10.6974 30.8914 8.32022 29.7943 7.08593 30.48C8.86879 31.4857 12.3888 30.9828 14.3545 31.12C13.3488 31.8057 11.4288 31.44 9.73736 31.76C10.4688 32.0343 11.1545 32.4 11.8402 32.6743C11.7945 32.3543 11.8859 32.1714 12.1145 32.1257C13.3488 33.04 14.9945 32.5371 16.2288 32.7657C16.2288 33.5428 14.8574 32.9028 14.4916 33.3143C16.0459 34.64 17.8745 32.1714 19.1088 33.3143C18.7431 33.7257 17.2345 33.2228 17.0059 34.0914C20.1145 35.0514 23.5431 35.1428 26.2402 35.0057C31.2688 35.6457 35.9774 34.4114 40.0916 33.8171C40.2288 33.6343 40.2288 33.3143 40.5031 33.2686C41.4631 33.2228 41.7831 32.5371 42.8802 32.6286C43.6574 32.0343 45.1202 32.0343 45.8059 31.3028C46.1716 31.2114 47.1316 31.0286 46.7202 30.6628C45.4402 31.44 43.4745 31.5771 42.1031 32.2628C42.1488 31.8971 41.6002 32.1714 41.6916 31.7143C45.3031 30.8914 49.6459 29.8857 51.0631 26.96C49.6459 28.0571 47.0859 28.6971 44.8459 28.7886C46.8574 27.8286 49.4174 27.8743 51.0631 26.5486C51.3374 26.5028 51.3374 26.7314 51.4745 26.8228C51.6116 26.5028 51.7945 26.1828 52.0231 25.9086C50.1945 26.64 47.9088 28.1486 45.9431 27.8743C46.4459 28.1028 46.2174 27.5543 46.4916 27.4628C48.3659 27.6457 50.5145 25.7257 52.2974 25.4971C52.2059 25.1771 52.8002 24.9028 52.4345 24.72C51.5659 25.4971 50.1945 25.8628 49.1431 26.1828C48.1831 26.4571 46.8574 27.2343 45.9888 26.5943C48.0916 26.1371 51.1088 25.5886 52.5716 24.08C52.8916 24.72 53.6688 23.76 53.2116 23.3028C51.3831 24.5828 48.9602 25.7257 46.6288 26.0914C46.5374 25.8171 46.9945 25.68 46.4916 25.68C39.1316 27.6914 32.9145 26.8686 24.5945 27.6457C24.5031 27.4628 24.1831 27.4628 23.9545 27.3714C18.4688 27.7828 14.4002 26.5943 9.41736 25.9086C8.77736 25.4971 6.9945 24.9028 6.62879 25.36C7.77164 25.6343 8.68593 25.4514 9.41736 26.2743C9.00593 26.8228 8.5945 26.1371 7.9545 26C5.85164 25.5428 3.38307 25.9086 2.14879 24.6743C1.96593 24.4457 1.2345 23.5771 1.37164 23.8971C1.2345 24.4 1.69164 24.5371 1.82879 25.1314ZM6.6745 19.6C6.26307 19.3257 7.3145 19.3714 7.3145 19.0514C4.93736 19.1428 0.914502 18.96 1.64593 22.0686C2.65164 22.9371 3.93164 24.2628 4.93736 24.0343C3.74879 22.2971 5.16593 19.7371 6.6745 19.6ZM5.62307 25.2686C4.06879 24.72 2.74307 23.9886 1.69164 23.0286C2.14879 24.5371 4.16022 25.2228 5.62307 25.2686ZM5.76022 21.2914C6.26307 20.9714 6.49164 20.4686 7.08593 20.1028C7.90879 19.5543 9.14307 19.4171 9.46307 18.7771C7.49736 19.5086 4.4345 20.7886 5.48593 23.2571C5.3945 22.4343 5.89736 22.16 5.76022 21.2914ZM6.17164 24.3543C7.04022 24.6286 7.9545 24.8571 9.09736 24.9028C8.32022 23.5314 7.81736 23.0286 7.77164 21.0628C8.09164 20.6057 9.09736 20.1943 8.96022 19.7371C7.04022 20.3314 5.57736 22.0228 6.17164 24.3543ZM10.1031 19.8286C7.77165 20.24 8.36593 23.9886 9.96593 24.4457C9.18879 23.2114 9.00593 20.8343 10.1031 19.8286ZM11.2916 18.5486C10.6516 18.5486 9.8745 18.4571 9.69165 18.96C10.1945 19.4628 11.0631 19.0057 11.2916 18.5486ZM12.2516 25.68C11.0174 24.4457 9.73736 21.1086 11.8402 19.8743C8.64022 20.2857 10.1488 25.4971 12.2516 25.68ZM12.3888 20.1028C10.0116 21.9771 12.2974 25.3143 14.3545 26.1828C13.1202 24.4914 11.2002 22.2971 12.3888 20.1028ZM13.0288 22.7543C12.9831 22.7543 12.7545 22.6628 12.7545 22.6171C12.8916 23.7143 14.4916 25.1314 15.4059 25.7714C15.4059 26 15.3602 26.1828 15.2688 26.32C16.8688 26.2743 17.6459 26.4571 19.2459 26.7314C18.8345 26 17.8288 25.8628 17.5088 24.9943C14.9945 25.1771 12.6631 23.2114 12.8916 21.0171C12.4345 21.4286 12.6631 22.48 13.0288 22.7543ZM15.6802 24.08C14.9031 22.8457 13.5774 21.7943 14.4916 19.8743C12.4802 20.9257 13.9431 23.7143 15.6802 24.08ZM21.4859 18.1371C22.6288 19.28 24.1831 17.9543 25.8288 18.2743C26.2402 18.3657 26.6059 18.64 27.0174 18.6857C29.5316 18.9143 32.0002 17.68 34.4231 18.9143C35.2002 18.0914 36.0688 17.4057 36.5259 16.2628C35.9774 14.8914 35.1545 13.84 34.2859 12.8343C34.3316 12.3314 34.9716 12.4686 34.9259 11.92C33.8745 11.6457 33.2345 10.96 32.8231 10.0914C31.6802 9.77142 31.3602 10.1371 30.3088 10.3657C29.8516 11.5086 28.4802 11.7828 28.0688 12.6057C30.7202 12.6514 33.8288 15.8971 32.1831 18.2743C30.0345 16.9028 27.1545 17.36 26.3774 14.7086C25.6916 14.8 25.6002 15.44 25.1888 15.76C23.1316 16.9486 20.7088 16.3543 18.6059 17.5886C18.6516 18.1828 18.5145 18.5486 17.9659 18.5028C17.6459 16.08 17.8288 14.4343 19.2916 13.6114C17.6459 13.4286 17.0516 14.2971 16.1374 14.8C16.3659 16.4 15.0859 17.2228 14.6745 18.64C16.6859 19.0971 19.5202 19.6 21.4859 18.1371ZM15.4059 19.6C14.2174 21.1086 15.3602 22.9371 16.4574 23.7143C15.6802 22.5714 15.0859 19.9657 16.7316 19.8743C15.4059 22.8457 18.4231 25.8628 20.9374 26.4571C21.2116 26.7314 20.8916 26.7314 20.8002 27.0057C22.7659 26.8686 24.9602 26.9143 27.3831 26.8686C29.3945 25.9543 31.1316 24.72 32.5488 23.1657C31.5888 23.2114 31.1774 24.1714 30.5831 24.6286C27.4745 26.8686 23.6345 26.4571 20.0231 25.5428C18.2859 24.4 16.8231 22.6171 17.0059 20.0114C17.3259 20.0114 17.6459 20.0571 17.6459 19.7371C16.6402 19.8743 16.2288 19.2343 15.4059 19.6ZM22.1259 25.4057C22.4459 25.4057 22.8574 24.9486 23.3145 24.8571C25.5545 24.4 27.8402 24.2628 29.2574 23.0286C28.9831 22.2971 28.0231 22.16 27.5202 21.9771C25.8288 23.5314 22.0802 23.1657 19.7488 22.5257C18.7888 22.2514 18.1031 21.3828 17.6459 21.4743C18.3316 23.5314 19.8859 25.4514 22.1259 25.4057ZM20.7088 21.9771C22.7659 22.48 25.6459 22.7086 26.9259 21.5657C24.6859 21.2914 21.5316 22.48 19.6574 21.4286C18.9716 21.0171 18.8345 20.1486 17.9202 20.24C18.1488 21.4743 19.5659 21.7028 20.7088 21.9771ZM21.9888 14.16C21.0288 13.8857 20.0231 14.2514 19.3374 14.16C19.0174 14.7543 18.2402 15.6228 18.4231 16.2628C19.2002 15.1657 20.8916 14.9371 21.9888 14.16ZM24.9145 20.7886C23.3602 20.1028 21.3488 20.6057 20.1602 19.4628C19.8859 19.7371 19.1088 19.5543 18.9716 20.0114C20.2059 21.3828 22.8574 21.6114 24.9145 20.7886ZM21.2116 16.1714C21.2116 15.76 21.5774 15.6686 21.4859 15.12C20.4802 15.3486 19.7488 15.8514 19.1088 16.4457C20.1145 16.4 20.1602 15.8971 21.2116 16.1714ZM22.9488 14.0228C22.9945 13.7028 23.0859 13.4743 23.2231 13.2457C22.4002 12.7886 21.2574 12.8343 20.7088 13.52C20.8916 13.52 21.2116 13.4743 21.2574 13.6571C21.1659 13.6571 21.1202 13.7486 21.2574 13.7943C21.8516 13.3371 22.4002 14.0228 22.9488 14.0228ZM22.8116 19.4628C22.4002 19.2343 21.3031 18.5486 20.8459 19.1886C21.4402 19.1886 22.3545 20.1486 22.8116 19.4628ZM23.3145 14.4343C22.4459 14.6171 22.0802 15.3028 21.8516 16.1714C22.3088 16.1257 22.6288 15.8971 23.1774 15.8971C22.6288 15.4857 23.5888 14.8457 23.3145 14.4343ZM23.5888 13.7943C24.0916 13.7028 24.4116 13.4743 24.9145 13.3828C24.6859 12.1943 23.6345 12.3771 22.8116 12.7428C23.4974 12.6514 23.4059 13.3371 23.5888 13.7943ZM24.2745 19.4628C24.0002 19.3714 23.7716 18.7771 23.6345 19.3257C23.7716 19.3714 24.0916 19.8743 24.2745 19.4628ZM24.5031 14.16C24.5031 14.2971 24.5945 14.2971 24.6402 14.4343C24.6402 14.8 23.9545 15.2114 24.2288 15.4857C24.9145 15.0743 25.5545 14.6171 25.9659 13.8857C25.6916 13.52 23.7716 14.0228 24.0002 14.5257C24.0459 14.2971 24.3202 14.2971 24.5031 14.16ZM28.3431 19.9657C29.2574 20.2857 31.4059 20.2857 32.9602 20.1028C34.5145 19.92 36.4802 19.6 37.3031 19.0514C38.7659 18.0914 38.9945 14.9828 36.5259 14.8457C37.6688 17.0857 35.7945 18.6857 34.4231 19.6C32.0916 18.4114 29.4402 19.6 26.8802 19.3257C26.1031 19.2343 25.4174 18.5486 24.5031 19.0514C25.4631 18.96 27.4745 19.6914 28.3431 19.9657ZM30.0802 22.3428C32.0002 22.5257 35.3831 21.7486 37.2116 20.7428C39.1316 19.6914 41.3259 16.9943 39.4516 15.7143C41.7374 19.3714 34.5145 22.2514 30.4916 21.7943C28.0688 21.52 26.5602 19.7371 24.9602 20.0571C26.4231 20.3771 27.9316 22.16 30.0802 22.3428ZM31.3602 22.7543C30.7659 22.6628 30.5831 22.9371 30.0345 22.8914C29.0745 24.4914 26.6516 24.5828 25.0059 25.5428C27.7945 25.36 30.3088 24.9028 31.3602 22.7543ZM25.9659 11.7828C26.5145 11.0971 26.6059 10.32 25.8288 9.81713C25.5545 10.5028 25.1888 11.4171 25.9659 11.7828ZM28.7545 11.0057C27.8859 11.0057 27.4288 11.8286 26.6516 11.5543C26.6059 11.8743 26.5145 12.1028 26.3774 12.3314C27.2002 11.9657 28.2516 11.7371 28.7545 11.0057ZM27.2916 10.2286C27.2459 9.67999 28.0231 9.26856 27.8402 8.39999C27.1545 8.35427 27.1088 8.99427 26.5145 9.03999C26.4231 9.67999 26.6516 9.95427 26.7888 10.3657C27.1088 10.1828 27.1545 10.4114 27.2916 10.2286ZM29.3945 13.3828C28.6174 13.1086 27.5659 12.7886 26.7431 13.2457C27.4288 13.3828 28.8459 13.9314 29.3945 13.3828ZM29.9431 9.67999C28.8916 9.7257 27.6574 10.1828 27.0174 11.0057C28.2059 10.5943 29.4402 10.8686 29.9431 9.67999ZM28.3431 15.8971C28.4802 15.2114 27.9774 15.12 27.9316 14.5714C28.7088 14.2057 28.9831 15.44 28.9831 16.3086C29.3031 16.4914 29.7602 16.4914 30.0345 16.72C29.3945 15.6228 29.0288 13.8857 27.5202 14.0686C27.7031 14.8457 27.5659 14.8457 27.2459 15.5314C27.7031 15.5771 27.6574 16.08 28.3431 15.8971ZM30.3088 7.02856C29.5774 7.34856 28.8916 7.71427 28.2059 8.07999C28.2974 8.30856 28.0688 8.85713 28.3431 8.85713C29.0288 8.30856 29.8059 7.8057 30.3088 7.02856ZM30.9945 8.49142C30.6745 8.30856 29.0288 8.90285 28.7545 9.26856C29.4402 9.22285 30.0802 8.85713 30.4916 9.26856C30.5374 8.90285 31.0402 8.7657 30.7659 8.49142C30.8116 8.49142 30.9031 8.49142 30.9945 8.49142ZM41.2802 26.0457C42.5602 25.04 44.3888 23.8971 44.4345 22.0686C42.3774 24.7657 37.7602 26.0914 33.8745 25.7714C33.3716 25.1771 32.4116 25.04 32.1374 24.1714C31.4059 25.3143 29.9888 25.8171 29.1202 26.8228C34.3774 26.0914 36.8002 26.6857 41.2802 26.0457ZM36.2516 20.1028C33.8745 20.56 31.5431 21.1086 29.2574 20.6514C29.1659 20.6971 29.1202 20.7428 29.1202 20.9257C31.6802 21.3828 34.2859 21.2457 36.2516 20.1028ZM30.0802 15.6228C30.6745 15.5771 30.8574 15.44 31.6802 15.3486C31.3145 14.5714 30.4459 13.7486 29.4402 14.0228C29.3945 14.8 29.9888 14.9371 30.0802 15.6228ZM31.1316 8.07999C31.0859 7.57713 31.6345 6.89142 31.1316 6.75427C31.1316 7.39427 30.5374 7.39427 30.4916 7.94285C30.8116 7.85142 30.8116 8.17142 31.1316 8.07999ZM32.0459 17.2228C32.0459 16.6286 32.0459 16.08 31.6345 15.8971C31.5431 16.2171 30.9031 15.9428 30.5831 16.0343C30.8116 16.8571 31.4516 17.4514 32.0459 17.2228ZM34.2859 23.3943C34.2859 23.4857 34.2859 23.5771 34.2859 23.6686C33.6002 23.76 32.9602 23.0743 32.6859 23.8057C33.6002 24.4914 35.2916 24.6286 36.6631 24.4457C39.5888 24.08 43.5659 22.5257 43.1088 19.5543C42.5602 19.2343 42.1945 18.7314 41.6459 18.3657C40.4116 21.2457 37.8974 22.8 34.5145 23.5314C34.5602 23.2571 33.6002 22.9371 33.8745 23.2571C34.0574 23.3028 34.2859 23.2571 34.2859 23.3943ZM41.2802 16.8114C41.1888 16.3543 40.5488 15.2114 40.0916 15.76C41.1431 16.1257 40.9145 17.7257 40.5031 18.5486C39.4516 20.6057 35.7488 22.2971 33.3716 22.5257C33.3716 22.7086 33.3259 22.8 33.2345 22.9371C36.6631 23.3028 41.8745 19.92 41.2802 16.8114ZM37.7145 25.1314C40.4574 24.5828 44.0688 22.8 44.2974 21.1543C44.4802 19.9657 43.3374 18.1828 42.1945 18.1371C47.8174 22.0686 37.7145 25.6343 33.6002 24.9943C34.4231 25.4057 36.2059 25.4057 37.7145 25.1314ZM39.1774 17.7257C39.2688 17.2228 39.4516 16.3543 38.9031 16.1257C39.1774 16.4914 38.8574 17.4514 39.1774 17.7257ZM62.2631 2.6857C62.2631 1.99999 63.2688 1.7257 62.8116 0.94856C61.7145 0.994274 60.5259 1.4057 59.3831 2.13713C56.5945 3.91999 53.9888 6.70856 50.9259 9.13142C47.7716 11.6457 44.8002 14.7086 42.6059 16.8114C49.0974 12.0571 55.5888 7.25713 62.2631 2.6857ZM44.2059 18.7771C45.6231 20.6057 45.1202 23.8514 43.5659 25.1314C45.9888 23.9886 47.1774 19.92 44.2059 18.7771ZM46.8116 21.84C46.6288 23.44 44.8916 24.4914 44.1602 25.68C45.8516 25.0857 46.5831 23.4857 47.4516 22.1143C47.7259 19.9657 45.7602 18.0914 44.1602 18C45.4859 19.0057 47.0402 19.92 46.8116 21.84ZM50.6516 24.2171C49.2345 24.5371 48.1831 25.2686 46.8116 25.68C48.5488 25.4514 49.3259 24.9486 50.6516 24.2171ZM52.3888 23.3028C51.7945 23.44 51.3374 23.76 50.9259 24.08C51.5202 23.9428 52.0231 23.6686 52.3888 23.3028Z" fill="black"/>
</svg>
