<svg width="64" height="64" viewBox="0 0 64 64" fill="none" xmlns="http://www.w3.org/2000/svg">
<path fill-rule="evenodd" clip-rule="evenodd" d="M43.1543 44.2971C45.2572 43.4743 47.4514 42.56 49.6457 42.1943C47.5886 43.1543 45.3943 44.16 43.1543 44.2971Z" fill="black"/>
<path fill-rule="evenodd" clip-rule="evenodd" d="M31.1316 18.3771C32.4116 19.6114 31.8631 21.76 31.2688 23.2686C32.9602 22.7657 33.7831 25.0514 35.3831 25.5086C35.7488 26.0114 35.4288 26.8343 34.9716 26.9714C35.3831 27.6114 36.1602 27.7028 36.9374 27.52C37.6231 27.9771 38.8574 28.5257 39.8631 29.12C40.2288 29.2114 40.1374 28.8457 40.2745 28.7086C40.8688 29.2571 41.5545 29.7143 41.8745 30.5371C45.1659 27.5657 48.4574 24.5943 51.9316 21.6686C53.3488 20.48 54.9031 19.4286 56.4116 18.1028C58.0116 16.6857 60.3431 14.3543 63.1316 14.1257C63.2688 14.3086 63.3145 14.5371 63.6802 14.5371C63.5888 17.0971 61.2116 18.1943 59.4745 19.2914C54.1259 22.6743 49.1888 27.0628 43.7488 30.7657C45.7602 31.8171 48.4574 32.8686 48.2288 35.6571C48.1374 37.0286 46.9488 38.08 46.1259 39.0857C47.9088 38.5371 52.9374 37.2571 53.1202 35.6571C53.3031 34.3314 51.1088 33.5086 49.4174 34.1943C49.0059 33.7371 49.7374 33.7371 49.8288 33.4171C48.7316 33.3257 47.5431 33.3257 47.3145 32.3657C50.6516 32.96 55.5431 34.0114 53.8974 37.8971C53.3031 38.72 52.5259 39.4514 52.2974 40.6857C49.1431 44.5257 43.0631 48.3657 37.2574 49.0057C36.2516 49.0971 35.0174 49.2343 33.8288 49.4171C32.0002 49.6914 30.7659 49.7371 28.8002 49.6914C27.2002 49.6457 25.5088 49.5543 23.9088 49.5543C23.3602 49.5543 22.7202 49.8286 22.1716 49.8286C21.1659 49.7828 19.9774 49.2343 18.8802 49.0514C17.1431 48.7314 16.1374 48.3657 14.5374 47.8628C13.8059 47.6343 12.8002 47.7257 11.8859 47.4514C11.0631 47.2228 10.1488 46.4914 9.09736 45.9886C6.81164 44.8914 5.21164 44.0228 3.56593 42.1486C1.73736 40.0914 0.0459306 38.4457 0.548788 35.2914C1.00593 34.88 1.14307 34.1028 1.46307 33.5543C5.16593 31.7714 9.8745 32.1828 14.1259 31.9543C14.8116 31.04 15.5888 30.0343 15.4516 28.6628C16.5945 27.7943 18.1488 26.3314 19.6574 27.3371C20.9831 26.2857 22.6745 25.8743 24.5488 25.8743C25.0516 24.7771 24.8688 23.9086 25.7374 22.8571C27.1545 21.0743 30.6288 21.44 31.1316 18.3771ZM1.82879 39.1314C2.28593 38.9028 2.14879 39.2228 2.60593 39.2686C2.60593 39.4971 2.65164 39.68 2.74307 39.8171C3.7945 40.1371 4.98307 40.96 6.44593 41.1428C7.54307 41.28 9.09736 40.6857 9.73736 41.6914C7.77164 41.92 4.57164 41.4171 3.1545 40.7771C3.52022 41.1428 3.88593 41.5543 4.20593 41.9657C5.3945 42.2857 7.08593 41.92 8.41164 42.1028C9.09736 42.1943 10.1945 42.3314 10.2402 43.0171C9.00593 42.5143 5.98879 42.6514 4.84593 42.7428C6.53736 44.16 9.92022 43.2 11.8402 44.48C10.6974 44.8914 8.32022 43.7943 7.08593 44.48C8.86879 45.4857 12.3888 44.9828 14.3545 45.12C13.3488 45.8057 11.4288 45.44 9.73736 45.76C10.4688 46.0343 11.1545 46.4 11.8402 46.6743C11.7945 46.3543 11.8859 46.1714 12.1145 46.1257C13.3488 47.04 14.9945 46.5371 16.2288 46.7657C16.2288 47.5428 14.8574 46.9028 14.4916 47.3143C16.0459 48.64 17.8745 46.1714 19.1088 47.3143C18.7431 47.7257 17.2345 47.2228 17.0059 48.0914C20.1145 49.0514 23.5431 49.1428 26.2402 49.0057C31.2688 49.6457 35.9774 48.4114 40.0916 47.8171C40.2288 47.6343 40.2288 47.3143 40.5031 47.2686C41.4631 47.2228 41.7831 46.5371 42.8802 46.6286C43.6574 46.0343 45.1202 46.0343 45.8059 45.3028C46.1716 45.2114 47.1316 45.0286 46.7202 44.6628C45.4402 45.44 43.4745 45.5771 42.1031 46.2628C42.1488 45.8971 41.6002 46.1714 41.6916 45.7143C45.3031 44.8914 49.6459 43.8857 51.0631 40.96C49.6459 42.0571 47.0859 42.6971 44.8459 42.7886C46.8574 41.8286 49.4174 41.8743 51.0631 40.5486C51.3374 40.5028 51.3374 40.7314 51.4745 40.8228C51.6116 40.5028 51.7945 40.1828 52.0231 39.9086C50.1945 40.64 47.9088 42.1486 45.9431 41.8743C46.4459 42.1028 46.2174 41.5543 46.4916 41.4628C48.3659 41.6457 50.5145 39.7257 52.2974 39.4971C52.2059 39.1771 52.8002 38.9028 52.4345 38.72C51.5659 39.4971 50.1945 39.8628 49.1431 40.1828C48.1831 40.4571 46.8574 41.2343 45.9888 40.5943C48.0916 40.1371 51.1088 39.5886 52.5716 38.08C52.8916 38.72 53.6688 37.76 53.2116 37.3028C51.3831 38.5828 48.9602 39.7257 46.6288 40.0914C46.5374 39.8171 46.9945 39.68 46.4916 39.68C39.1316 41.6914 32.9145 40.8686 24.5945 41.6457C24.5031 41.4628 24.1831 41.4628 23.9545 41.3714C18.4688 41.7828 14.4002 40.5943 9.41736 39.9086C8.77736 39.4971 6.9945 38.9028 6.62879 39.36C7.77165 39.6343 8.68593 39.4514 9.41736 40.2743C9.00593 40.8228 8.5945 40.1371 7.9545 40C5.85164 39.5428 3.38307 39.9086 2.14879 38.6743C1.96593 38.4457 1.2345 37.5771 1.37164 37.8971C1.2345 38.4 1.69164 38.5371 1.82879 39.1314ZM6.6745 33.6C6.26307 33.3257 7.3145 33.3714 7.3145 33.0514C4.93736 33.1428 0.914502 32.96 1.64593 36.0686C2.65164 36.9371 3.93164 38.2628 4.93736 38.0343C3.74879 36.2971 5.16593 33.7371 6.6745 33.6ZM5.62307 39.2686C4.06879 38.72 2.74307 37.9886 1.69164 37.0286C2.14879 38.5371 4.16022 39.2228 5.62307 39.2686ZM5.76022 35.2914C6.26307 34.9714 6.49164 34.4686 7.08593 34.1028C7.90879 33.5543 9.14307 33.4171 9.46307 32.7771C7.49736 33.5086 4.4345 34.7886 5.48593 37.2571C5.3945 36.4343 5.89736 36.16 5.76022 35.2914ZM6.17164 38.3543C7.04022 38.6286 7.9545 38.8571 9.09736 38.9028C8.32022 37.5314 7.81736 37.0286 7.77165 35.0628C8.09164 34.6057 9.09736 34.1943 8.96022 33.7371C7.04022 34.3314 5.57736 36.0228 6.17164 38.3543ZM10.1031 33.8286C7.77165 34.24 8.36593 37.9886 9.96593 38.4457C9.18879 37.2114 9.00593 34.8343 10.1031 33.8286ZM11.2916 32.5486C10.6516 32.5486 9.8745 32.4571 9.69165 32.96C10.1945 33.4628 11.0631 33.0057 11.2916 32.5486ZM12.2516 39.68C11.0174 38.4457 9.73736 35.1086 11.8402 33.8743C8.64022 34.2857 10.1488 39.4971 12.2516 39.68ZM12.3888 34.1028C10.0116 35.9771 12.2974 39.3143 14.3545 40.1828C13.1202 38.4914 11.2002 36.2971 12.3888 34.1028ZM13.0288 36.7543C12.9831 36.7543 12.7545 36.6628 12.7545 36.6171C12.8916 37.7143 14.4916 39.1314 15.4059 39.7714C15.4059 40 15.3602 40.1828 15.2688 40.32C16.8688 40.2743 17.6459 40.4571 19.2459 40.7314C18.8345 40 17.8288 39.8628 17.5088 38.9943C14.9945 39.1771 12.6631 37.2114 12.8916 35.0171C12.4345 35.4286 12.6631 36.48 13.0288 36.7543ZM15.6802 38.08C14.9031 36.8457 13.5774 35.7943 14.4916 33.8743C12.4802 34.9257 13.9431 37.7143 15.6802 38.08ZM21.4859 32.1371C22.6288 33.28 24.1831 31.9543 25.8288 32.2743C26.2402 32.3657 26.6059 32.64 27.0174 32.6857C29.5316 32.9143 32.0002 31.68 34.4231 32.9143C35.2002 32.0914 36.0688 31.4057 36.5259 30.2628C35.9774 28.8914 35.1545 27.84 34.2859 26.8343C34.3316 26.3314 34.9716 26.4686 34.9259 25.92C33.8745 25.6457 33.2345 24.96 32.8231 24.0914C31.6802 23.7714 31.3602 24.1371 30.3088 24.3657C29.8516 25.5086 28.4802 25.7828 28.0688 26.6057C30.7202 26.6514 33.8288 29.8971 32.1831 32.2743C30.0345 30.9028 27.1545 31.36 26.3774 28.7086C25.6916 28.8 25.6002 29.44 25.1888 29.76C23.1316 30.9486 20.7088 30.3543 18.6059 31.5886C18.6516 32.1828 18.5145 32.5486 17.9659 32.5028C17.6459 30.08 17.8288 28.4343 19.2916 27.6114C17.6459 27.4286 17.0516 28.2971 16.1374 28.8C16.3659 30.4 15.0859 31.2228 14.6745 32.64C16.6859 33.0971 19.5202 33.6 21.4859 32.1371ZM15.4059 33.6C14.2174 35.1086 15.3602 36.9371 16.4574 37.7143C15.6802 36.5714 15.0859 33.9657 16.7316 33.8743C15.4059 36.8457 18.4231 39.8628 20.9374 40.4571C21.2116 40.7314 20.8916 40.7314 20.8002 41.0057C22.7659 40.8686 24.9602 40.9143 27.3831 40.8686C29.3945 39.9543 31.1316 38.72 32.5488 37.1657C31.5888 37.2114 31.1774 38.1714 30.5831 38.6286C27.4745 40.8686 23.6345 40.4571 20.0231 39.5428C18.2859 38.4 16.8231 36.6171 17.0059 34.0114C17.3259 34.0114 17.6459 34.0571 17.6459 33.7371C16.6402 33.8743 16.2288 33.2343 15.4059 33.6ZM22.1259 39.4057C22.4459 39.4057 22.8574 38.9486 23.3145 38.8571C25.5545 38.4 27.8402 38.2628 29.2574 37.0286C28.9831 36.2971 28.0231 36.16 27.5202 35.9771C25.8288 37.5314 22.0802 37.1657 19.7488 36.5257C18.7888 36.2514 18.1031 35.3828 17.6459 35.4743C18.3316 37.5314 19.8859 39.4514 22.1259 39.4057ZM20.7088 35.9771C22.7659 36.48 25.6459 36.7086 26.9259 35.5657C24.6859 35.2914 21.5316 36.48 19.6574 35.4286C18.9716 35.0171 18.8345 34.1486 17.9202 34.24C18.1488 35.4743 19.5659 35.7028 20.7088 35.9771ZM21.9888 28.16C21.0288 27.8857 20.0231 28.2514 19.3374 28.16C19.0174 28.7543 18.2402 29.6228 18.4231 30.2628C19.2002 29.1657 20.8916 28.9371 21.9888 28.16ZM24.9145 34.7886C23.3602 34.1028 21.3488 34.6057 20.1602 33.4628C19.8859 33.7371 19.1088 33.5543 18.9716 34.0114C20.2059 35.3828 22.8574 35.6114 24.9145 34.7886ZM21.2116 30.1714C21.2116 29.76 21.5774 29.6686 21.4859 29.12C20.4802 29.3486 19.7488 29.8514 19.1088 30.4457C20.1145 30.4 20.1602 29.8971 21.2116 30.1714ZM22.9488 28.0228C22.9945 27.7028 23.0859 27.4743 23.2231 27.2457C22.4002 26.7886 21.2574 26.8343 20.7088 27.52C20.8916 27.52 21.2116 27.4743 21.2574 27.6571C21.1659 27.6571 21.1202 27.7486 21.2574 27.7943C21.8516 27.3371 22.4002 28.0228 22.9488 28.0228ZM22.8116 33.4628C22.4002 33.2343 21.3031 32.5486 20.8459 33.1886C21.4402 33.1886 22.3545 34.1486 22.8116 33.4628ZM23.3145 28.4343C22.4459 28.6171 22.0802 29.3028 21.8516 30.1714C22.3088 30.1257 22.6288 29.8971 23.1774 29.8971C22.6288 29.4857 23.5888 28.8457 23.3145 28.4343ZM23.5888 27.7943C24.0916 27.7028 24.4116 27.4743 24.9145 27.3828C24.6859 26.1943 23.6345 26.3771 22.8116 26.7428C23.4974 26.6514 23.4059 27.3371 23.5888 27.7943ZM24.2745 33.4628C24.0002 33.3714 23.7716 32.7771 23.6345 33.3257C23.7716 33.3714 24.0916 33.8743 24.2745 33.4628ZM24.5031 28.16C24.5031 28.2971 24.5945 28.2971 24.6402 28.4343C24.6402 28.8 23.9545 29.2114 24.2288 29.4857C24.9145 29.0743 25.5545 28.6171 25.9659 27.8857C25.6916 27.52 23.7716 28.0228 24.0002 28.5257C24.0459 28.2971 24.3202 28.2971 24.5031 28.16ZM28.3431 33.9657C29.2574 34.2857 31.4059 34.2857 32.9602 34.1028C34.5145 33.92 36.4802 33.6 37.3031 33.0514C38.7659 32.0914 38.9945 28.9828 36.5259 28.8457C37.6688 31.0857 35.7945 32.6857 34.4231 33.6C32.0916 32.4114 29.4402 33.6 26.8802 33.3257C26.1031 33.2343 25.4174 32.5486 24.5031 33.0514C25.4631 32.96 27.4745 33.6914 28.3431 33.9657ZM30.0802 36.3428C32.0002 36.5257 35.3831 35.7486 37.2116 34.7428C39.1316 33.6914 41.3259 30.9943 39.4516 29.7143C41.7374 33.3714 34.5145 36.2514 30.4916 35.7943C28.0688 35.52 26.5602 33.7371 24.9602 34.0571C26.4231 34.3771 27.9316 36.16 30.0802 36.3428ZM31.3602 36.7543C30.7659 36.6628 30.5831 36.9371 30.0345 36.8914C29.0745 38.4914 26.6516 38.5828 25.0059 39.5428C27.7945 39.36 30.3088 38.9028 31.3602 36.7543ZM25.9659 25.7828C26.5145 25.0971 26.6059 24.32 25.8288 23.8171C25.5545 24.5028 25.1888 25.4171 25.9659 25.7828ZM28.7545 25.0057C27.8859 25.0057 27.4288 25.8286 26.6516 25.5543C26.6059 25.8743 26.5145 26.1028 26.3774 26.3314C27.2002 25.9657 28.2516 25.7371 28.7545 25.0057ZM27.2916 24.2286C27.2459 23.68 28.0231 23.2686 27.8402 22.4C27.1545 22.3543 27.1088 22.9943 26.5145 23.04C26.4231 23.68 26.6516 23.9543 26.7888 24.3657C27.1088 24.1828 27.1545 24.4114 27.2916 24.2286ZM29.3945 27.3828C28.6174 27.1086 27.5659 26.7886 26.7431 27.2457C27.4288 27.3828 28.8459 27.9314 29.3945 27.3828ZM29.9431 23.68C28.8916 23.7257 27.6574 24.1828 27.0174 25.0057C28.2059 24.5943 29.4402 24.8686 29.9431 23.68ZM28.3431 29.8971C28.4802 29.2114 27.9774 29.12 27.9316 28.5714C28.7088 28.2057 28.9831 29.44 28.9831 30.3086C29.3031 30.4914 29.7602 30.4914 30.0345 30.72C29.3945 29.6228 29.0288 27.8857 27.5202 28.0686C27.7031 28.8457 27.5659 28.8457 27.2459 29.5314C27.7031 29.5771 27.6574 30.08 28.3431 29.8971ZM30.3088 21.0286C29.5774 21.3486 28.8916 21.7143 28.2059 22.08C28.2974 22.3086 28.0688 22.8571 28.3431 22.8571C29.0288 22.3086 29.8059 21.8057 30.3088 21.0286ZM30.9945 22.4914C30.6745 22.3086 29.0288 22.9028 28.7545 23.2686C29.4402 23.2228 30.0802 22.8571 30.4916 23.2686C30.5374 22.9028 31.0402 22.7657 30.7659 22.4914C30.8116 22.4914 30.9031 22.4914 30.9945 22.4914ZM41.2802 40.0457C42.5602 39.04 44.3888 37.8971 44.4345 36.0686C42.3774 38.7657 37.7602 40.0914 33.8745 39.7714C33.3716 39.1771 32.4116 39.04 32.1374 38.1714C31.4059 39.3143 29.9888 39.8171 29.1202 40.8228C34.3774 40.0914 36.8002 40.6857 41.2802 40.0457ZM36.2516 34.1028C33.8745 34.56 31.5431 35.1086 29.2574 34.6514C29.1659 34.6971 29.1202 34.7428 29.1202 34.9257C31.6802 35.3828 34.2859 35.2457 36.2516 34.1028ZM30.0802 29.6228C30.6745 29.5771 30.8574 29.44 31.6802 29.3486C31.3145 28.5714 30.4459 27.7486 29.4402 28.0228C29.3945 28.8 29.9888 28.9371 30.0802 29.6228ZM31.1316 22.08C31.0859 21.5771 31.6345 20.8914 31.1316 20.7543C31.1316 21.3943 30.5374 21.3943 30.4916 21.9428C30.8116 21.8514 30.8116 22.1714 31.1316 22.08ZM32.0459 31.2228C32.0459 30.6286 32.0459 30.08 31.6345 29.8971C31.5431 30.2171 30.9031 29.9428 30.5831 30.0343C30.8116 30.8571 31.4516 31.4514 32.0459 31.2228ZM34.2859 37.3943C34.2859 37.4857 34.2859 37.5771 34.2859 37.6686C33.6002 37.76 32.9602 37.0743 32.6859 37.8057C33.6002 38.4914 35.2916 38.6286 36.6631 38.4457C39.5888 38.08 43.5659 36.5257 43.1088 33.5543C42.5602 33.2343 42.1945 32.7314 41.6459 32.3657C40.4116 35.2457 37.8974 36.8 34.5145 37.5314C34.5602 37.2571 33.6002 36.9371 33.8745 37.2571C34.0574 37.3028 34.2859 37.2571 34.2859 37.3943ZM41.2802 30.8114C41.1888 30.3543 40.5488 29.2114 40.0916 29.76C41.1431 30.1257 40.9145 31.7257 40.5031 32.5486C39.4516 34.6057 35.7488 36.2971 33.3716 36.5257C33.3716 36.7086 33.3259 36.8 33.2345 36.9371C36.6631 37.3028 41.8745 33.92 41.2802 30.8114ZM37.7145 39.1314C40.4574 38.5828 44.0688 36.8 44.2974 35.1543C44.4802 33.9657 43.3374 32.1828 42.1945 32.1371C47.8174 36.0686 37.7145 39.6343 33.6002 38.9943C34.4231 39.4057 36.2059 39.4057 37.7145 39.1314ZM39.1774 31.7257C39.2688 31.2228 39.4516 30.3543 38.9031 30.1257C39.1774 30.4914 38.8574 31.4514 39.1774 31.7257ZM62.2631 16.6857C62.2631 16 63.2688 15.7257 62.8116 14.9486C61.7145 14.9943 60.5259 15.4057 59.3831 16.1371C56.5945 17.92 53.9888 20.7086 50.9259 23.1314C47.7716 25.6457 44.8002 28.7086 42.6059 30.8114C49.0974 26.0571 55.5888 21.2571 62.2631 16.6857ZM44.2059 32.7771C45.6231 34.6057 45.1202 37.8514 43.5659 39.1314C45.9888 37.9886 47.1774 33.92 44.2059 32.7771ZM46.8116 35.84C46.6288 37.44 44.8916 38.4914 44.1602 39.68C45.8516 39.0857 46.5831 37.4857 47.4516 36.1143C47.7259 33.9657 45.7602 32.0914 44.1602 32C45.4859 33.0057 47.0402 33.92 46.8116 35.84ZM50.6516 38.2171C49.2345 38.5371 48.1831 39.2686 46.8116 39.68C48.5488 39.4514 49.3259 38.9486 50.6516 38.2171ZM52.3888 37.3028C51.7945 37.44 51.3374 37.76 50.9259 38.08C51.5202 37.9428 52.0231 37.6686 52.3888 37.3028Z" fill="black"/>
</svg>
